<?xml version="1.0" encoding="UTF-8" standalone="no"?>
<!-- Created with Inkscape (http://www.inkscape.org/) -->

<svg
   width="190mm"
   height="190mm"
   viewBox="0 0 190 190"
   version="1.1"
   id="svg5"
   xml:space="preserve"
   sodipodi:docname="parrot_1(gradient_2).svg"
   inkscape:version="1.2.2 (732a01da63, 2022-12-09)"
   xmlns:inkscape="http://www.inkscape.org/namespaces/inkscape"
   xmlns:sodipodi="http://sodipodi.sourceforge.net/DTD/sodipodi-0.dtd"
   xmlns:xlink="http://www.w3.org/1999/xlink"
   xmlns="http://www.w3.org/2000/svg"
   xmlns:svg="http://www.w3.org/2000/svg"><sodipodi:namedview
     id="namedview7"
     pagecolor="#505050"
     bordercolor="#eeeeee"
     borderopacity="1"
     inkscape:showpageshadow="0"
     inkscape:pageopacity="0"
     inkscape:pagecheckerboard="0"
     inkscape:deskcolor="#505050"
     inkscape:document-units="mm"
     showgrid="false"
     inkscape:zoom="1.4770342"
     inkscape:cx="423.82227"
     inkscape:cy="323.62148"
     inkscape:window-width="1920"
     inkscape:window-height="1009"
     inkscape:window-x="-8"
     inkscape:window-y="1072"
     inkscape:window-maximized="1"
     inkscape:current-layer="layer1" /><defs
     id="defs2"><linearGradient
       inkscape:collect="always"
       id="linearGradient9347"><stop
         style="stop-color:#000000;stop-opacity:0.47596154;"
         offset="0"
         id="stop9343" /><stop
         style="stop-color:#000000;stop-opacity:0;"
         offset="1"
         id="stop9345" /></linearGradient><linearGradient
       inkscape:collect="always"
       id="linearGradient3422"><stop
         style="stop-color:#ff2e00;stop-opacity:1;"
         offset="0"
         id="stop3418" /><stop
         style="stop-color:#ff9800;stop-opacity:1;"
         offset="1"
         id="stop3420" /></linearGradient><linearGradient
       inkscape:collect="always"
       xlink:href="#linearGradient3422"
       id="linearGradient3424"
       x1="100.59212"
       y1="91.522263"
       x2="125.84264"
       y2="91.522263"
       gradientUnits="userSpaceOnUse" /><linearGradient
       inkscape:collect="always"
       xlink:href="#linearGradient9347"
       id="linearGradient9349"
       x1="159.35081"
       y1="95.139961"
       x2="179.54112"
       y2="90.70668"
       gradientUnits="userSpaceOnUse" /></defs><g
     inkscape:label="Warstwa 1"
     inkscape:groupmode="layer"
     id="layer1"><path
       style="fill:none;stroke:#000000;stroke-width:1.32291667;stroke-opacity:1;stroke-linecap:round;stroke-linejoin:round;stroke-dasharray:none;stroke-dashoffset:0"
       d="M 9.260826,162.03979 C 35.794279,81.340203 124.85635,122.60877 80.913418,182.63991"
       id="path1027"
       sodipodi:nodetypes="cc" /><path
       style="fill:none;stroke:#000000;stroke-width:1.32291667;stroke-opacity:1;stroke-linecap:round;stroke-linejoin:round;stroke-dasharray:none;stroke-dashoffset:0"
       d="M 58.521984,117.07779 C 56.381827,105.93821 55.22342,94.100553 65.060283,79.908007"
       id="path1083"
       sodipodi:nodetypes="cc" /><path
       style="fill:none;stroke:#000000;stroke-width:1.32291667;stroke-opacity:1;stroke-linecap:round;stroke-linejoin:round;stroke-dasharray:none;stroke-dashoffset:0"
       d="m 85.033443,77.221036 c -17.98552,3.398462 -37.866659,6.919241 -44.872436,-15.226177 9.04614,-3.403498 27.675814,6.717431 45.85766,2.507841"
       id="path1085"
       sodipodi:nodetypes="ccc" /><path
       style="fill:none;stroke:#000000;stroke-width:1.32291667;stroke-opacity:1;stroke-linecap:round;stroke-linejoin:round;stroke-dasharray:none;stroke-dashoffset:0"
       d="m 120.27473,177.0095 c 8.36783,-11.0791 18.63397,-21.70859 18.36644,-34.8329"
       id="path1815"
       sodipodi:nodetypes="cc" /><path
       style="fill:none;stroke:#000000;stroke-width:1.32291667;stroke-opacity:1;stroke-linecap:round;stroke-linejoin:round;stroke-dasharray:none;stroke-dashoffset:0"
       d="m 138.28291,132.10223 0.48492,3.48779"
       id="path1817"
       sodipodi:nodetypes="cc" /><circle
       style="fill:url(#linearGradient3424);stroke:#000000;stroke-width:1.32291667;stroke-opacity:1;stroke-linecap:round;stroke-linejoin:round;stroke-dasharray:none;stroke-dashoffset:0;fill-opacity:1"
       id="path1871"
       cx="113.21738"
       cy="91.522263"
       r="11.963802" /><circle
       style="fill:none;stroke:#000000;stroke-width:1.32291667;stroke-opacity:1;stroke-linecap:round;stroke-linejoin:round;stroke-dasharray:none;stroke-dashoffset:0;fill-opacity:1"
       id="path1871-2"
       cx="137.29506"
       cy="72.787544"
       r="7.4048929" /><path
       style="fill:none;stroke:#000000;stroke-width:1.32291667;stroke-opacity:1;stroke-linecap:round;stroke-linejoin:round;stroke-dasharray:none;stroke-dashoffset:0"
       d="m 145.10108,110.57366 c 9.09293,3.05512 12.5868,-0.46256 18.17645,-1.51998"
       id="path1899"
       sodipodi:nodetypes="cc" /><path
       style="fill:url(#linearGradient9349);fill-opacity:1;stroke:none;stroke-width:0.264583;stroke-linecap:round;stroke-linejoin:round;stroke-dasharray:none;stroke-dashoffset:0;stroke-opacity:1"
       d="m 145.54433,96.104039 c 1.59739,-5.086908 3.54239,-10.126415 10.30006,-14.509649 3.97862,-2.45755 8.18423,-4.817824 11.37485,-7.613089 8.96029,7.151091 11.44898,11.447069 12.36007,15.047045 0.4433,2.845098 1.01459,5.533764 -0.62696,10.927021 -3.16874,8.877653 -6.90519,10.942863 -10.65832,12.807903 -1.98419,0.88141 -3.95528,1.6057 -5.82178,1.07479 1.29332,-4.85816 0.95106,-6.64964 0.35827,-7.97135 -2.54622,-5.12697 -4.53695,-5.30305 -7.34439,-6.717436 -2.83381,-1.289434 -6.27629,-2.23106 -9.9418,-3.045235 z"
       id="path4206"
       sodipodi:nodetypes="cccccccccc" /><path
       style="fill:none;stroke:#000000;stroke-width:1.32291667;stroke-opacity:1;stroke-linecap:round;stroke-linejoin:round;stroke-dasharray:none;stroke-dashoffset:0;fill-opacity:1"
       d="m 167.25479,73.99667 c 7.99134,6.383449 14.62789,13.211091 12.44964,22.928833 -1.99669,11.093337 -9.56776,17.088537 -17.36676,17.054587 0.65607,-3.79165 3.26562,-7.14786 -3.23336,-13.02414 -4.20417,-2.724937 -8.91686,-3.754807 -13.61399,-4.836547"
       id="path1897"
       sodipodi:nodetypes="ccccc" /><path
       style="fill:none;stroke:#000000;stroke-width:1.32291667;stroke-opacity:1;stroke-linecap:round;stroke-linejoin:round;stroke-dasharray:none;stroke-dashoffset:0"
       d="M 71.777712,65.308791 C 40.460693,61.16198 30.125579,47.591004 36.040982,29.213799 58.135503,48.913035 73.177095,50.793545 89.332599,51.87393 60.486444,43.277302 44.779542,26.471889 54.670657,4.1353916 60.044602,20.525923 79.480368,34.139915 89.243034,40.319951 67.209861,22.04854 69.986399,8.1658496 76.524698,2.6127736 78.495144,14.25632 89.332603,24.198118 94.885683,27.153787 c 6.717427,4.926116 17.196617,7.075694 20.958377,7.344391 3.85133,0.537394 8.15048,0.358263 10.92702,0.447829 19.70446,-1.433052 24.36188,11.195717 26.86972,13.076598 0.53739,-5.732207 -1.43305,-9.314837 -3.58263,-16.121833 11.91225,1.522618 12.98703,15.942702 15.58444,22.391435 2.50784,-4.746984 3.1348,-10.120928 4.20959,-17.465319 10.03136,12.270506 4.65742,25.078407 3.22437,29.198431 -1.88088,7.254826 -14.95748,13.972256 -14.95748,13.972256 -9.91643,6.208035 -14.32602,14.690638 -13.25573,25.436665 0.73584,10.57836 0.63353,20.46326 3.40349,27.85495 2.78006,12.6128 2.12307,24.16175 -5.10524,33.67672 -7.18378,11.02728 -12.61578,15.79822 -18.18185,21.04795"
       id="path1087"
       sodipodi:nodetypes="ccccccccccccccccccc" /></g></svg>
